<svg width="14" height="16" viewBox="0 0 14 16" fill="none" xmlns="http://www.w3.org/2000/svg">
<path fill-rule="evenodd" clip-rule="evenodd" d="M2.1 8.00002C1.7134 8.00002 1.4 8.32563 1.4 8.72729V13.8182C1.4 14.2199 1.7134 14.5455 2.1 14.5455H11.9C12.2866 14.5455 12.6 14.2199 12.6 13.8182V8.72729C12.6 8.32563 12.2866 8.00002 11.9 8.00002H2.1ZM0 8.72729C0 7.5223 0.940202 6.54547 2.1 6.54547H11.9C13.0598 6.54547 14 7.5223 14 8.72729V13.8182C14 15.0232 13.0598 16 11.9 16H2.1C0.940202 16 0 15.0232 0 13.8182V8.72729Z" fill="white"/>
<path fill-rule="evenodd" clip-rule="evenodd" d="M2.1 8.00002C1.7134 8.00002 1.4 8.32563 1.4 8.72729V13.8182C1.4 14.2199 1.7134 14.5455 2.1 14.5455H11.9C12.2866 14.5455 12.6 14.2199 12.6 13.8182V8.72729C12.6 8.32563 12.2866 8.00002 11.9 8.00002H2.1ZM0 8.72729C0 7.5223 0.940202 6.54547 2.1 6.54547H11.9C13.0598 6.54547 14 7.5223 14 8.72729V13.8182C14 15.0232 13.0598 16 11.9 16H2.1C0.940202 16 0 15.0232 0 13.8182V8.72729Z" fill="#4E5D78"/>
<path fill-rule="evenodd" clip-rule="evenodd" d="M7.00008 1.45455C6.25747 1.45455 5.54528 1.76104 5.02018 2.3066C4.49508 2.85216 4.20008 3.5921 4.20008 4.36364V7.27273C4.20008 7.67439 3.88668 8 3.50008 8C3.11348 8 2.80008 7.67439 2.80008 7.27273V4.36364C2.80008 3.20633 3.24258 2.09642 4.03023 1.27808C4.81788 0.459739 5.88617 0 7.00008 0C8.11399 0 9.18227 0.459739 9.96993 1.27808C10.7576 2.09642 11.2001 3.20633 11.2001 4.36364V7.27273C11.2001 7.67439 10.8867 8 10.5001 8C10.1135 8 9.80008 7.67439 9.80008 7.27273V4.36364C9.80008 3.5921 9.50508 2.85216 8.97998 2.3066C8.45488 1.76104 7.74269 1.45455 7.00008 1.45455Z" fill="white"/>
<path fill-rule="evenodd" clip-rule="evenodd" d="M7.00008 1.45455C6.25747 1.45455 5.54528 1.76104 5.02018 2.3066C4.49508 2.85216 4.20008 3.5921 4.20008 4.36364V7.27273C4.20008 7.67439 3.88668 8 3.50008 8C3.11348 8 2.80008 7.67439 2.80008 7.27273V4.36364C2.80008 3.20633 3.24258 2.09642 4.03023 1.27808C4.81788 0.459739 5.88617 0 7.00008 0C8.11399 0 9.18227 0.459739 9.96993 1.27808C10.7576 2.09642 11.2001 3.20633 11.2001 4.36364V7.27273C11.2001 7.67439 10.8867 8 10.5001 8C10.1135 8 9.80008 7.67439 9.80008 7.27273V4.36364C9.80008 3.5921 9.50508 2.85216 8.97998 2.3066C8.45488 1.76104 7.74269 1.45455 7.00008 1.45455Z" fill="#4E5D78"/>
</svg>
